<svg xmlns="http://www.w3.org/2000/svg" version="1.1" xmlns:xlink="http://www.w3.org/1999/xlink" xmlns:svgjs="http://svgjs.com/svgjs" width="111.16" height="99.05"><svg xmlns="http://www.w3.org/2000/svg" viewBox="0 0 111.16 99.05"><defs><style>.cls-1{opacity:0.2;}.cls-2{fill:#231f20;}.cls-3{fill:#067ac5;}.cls-4{fill:#1e9d94;}.cls-5{fill:#67ded9;}</style></defs><g id="SvgjsG1001" data-name="Camada 2"><g id="SvgjsG1000"><g class="cls-1"><path class="cls-2" d="M96.76,89.15h0Z"></path></g><path class="cls-3" d="M97.26,89.15h0Z"></path><path class="cls-3" d="M96.76,89.15h0Z"></path><path class="cls-4" d="M29.83,48.46V86c0,7.19-6.46,13-14.41,13A14.48,14.48,0,0,1,2.08,91,11.72,11.72,0,0,1,1,86V47c1.34-8.58,13.53-12.32,20.52-6Z"></path><path class="cls-5" d="M109.4,58.57c-1.52,3.64-5.51,6.1-9.7,6.61a13,13,0,0,1-8.12-1.63,12,12,0,0,1-1.94-1.43L75.51,49.43,55.09,31.08,24.73,3.81A15,15,0,0,0,15.16,0,15.66,15.66,0,0,0,4.59,3.5,12.49,12.49,0,0,0,0,13V42.93l.08-.42a3.59,3.59,0,0,1,.08-.35,11,11,0,0,1,6.08-7.08,12.34,12.34,0,0,1,1.69-.66l.45-.14a13.94,13.94,0,0,1,4.73-.47A12.13,12.13,0,0,1,18,35.2c2.15,1.12,3.92,3,5.67,4.6l8,7.16,11,9.92L55.1,68.06,67.22,79,77.37,88.1l6.48,5.83,1.45,1.31a16,16,0,0,0,15.49,3c5.57-1.88,9.37-6.82,9.37-12.19V55.81A9.54,9.54,0,0,1,109.4,58.57Z"></path><path class="cls-5" d="M111.16,13V52.32c-1.07,8.81-13.44,12.7-20.52,6.31l-8.31-7.47v-7l-3.88,3.5L58,29.33,86.3,3.81A15.22,15.22,0,0,1,96.49,0h.25C104.71,0,111.16,5.83,111.16,13Z"></path><path class="cls-4" d="M111.16,44.18v8.14c-1.07,8.81-13.44,12.7-20.52,6.31l-8.31-7.47v-7l8.31-7.5c7.23-6.52,19.91-2.48,20.5,6.74C111.15,43.67,111.16,43.92,111.16,44.18Z"></path></g></g></svg><style>@media (prefers-color-scheme: light) { :root { filter: none; } }
</style></svg>